<?xml version="1.0" standalone="no"?>
<!DOCTYPE svg PUBLIC "-//W3C//DTD SVG 20010904//EN"
 "http://www.w3.org/TR/2001/REC-SVG-20010904/DTD/svg10.dtd">
<svg version="1.0" xmlns="http://www.w3.org/2000/svg"
 width="512.000000pt" height="512.000000pt" viewBox="0 0 512.000000 512.000000"
 preserveAspectRatio="xMidYMid meet">
<metadata>
Created by potrace 1.14, written by Peter Selinger 2001-2017
</metadata>
<g transform="translate(0.000000,512.000000) scale(0.100000,-0.100000)"
fill="#000000" stroke="none">
<path d="M617 4858 c-171 -22 -329 -176 -354 -348 -11 -71 -9 -3874 1 -3920
39 -165 190 -306 352 -328 33 -4 923 -7 1979 -6 1796 1 1923 2 1970 18 156 55
270 186 292 336 5 30 8 921 7 1980 -1 1796 -2 1928 -19 1975 -47 138 -141 232
-280 281 -47 16 -174 17 -1970 18 -1057 1 -1947 -2 -1978 -6z"/>
</g>
</svg>
